PathFileType	4	(X/Y/Z)	0_1_33_p1_0-333.trc
DataRate	CameraRate	NumFrames	NumMarkers	Units	OrigDataRate	OrigDataStartFrame	OrigNumFrames
60	60	6	27	m	60	249	333
Frame#	Time	RHip			RKnee			RAnkle			RBigToe			RSmallToe			RHeel			LHip			LKnee			LAnkle			LBigToe			LSmallToe			LHeel			Neck			Head			Nose			RShoulder			RElbow			RWrist			RThumb			RIndex			RPinky			LShoulder			LElbow			LWrist			LThumb			LIndex			LPinky		
		X1	Y1	Z1	X2	Y2	Z2	X3	Y3	Z3	X4	Y4	Z4	X5	Y5	Z5	X6	Y6	Z6	X7	Y7	Z7	X8	Y8	Z8	X9	Y9	Z9	X10	Y10	Z10	X11	Y11	Z11	X12	Y12	Z12	X13	Y13	Z13	X14	Y14	Z14	X15	Y15	Z15	X16	Y16	Z16	X17	Y17	Z17	X18	Y18	Z18	X19	Y19	Z19	X20	Y20	Z20	X21	Y21	Z21	X22	Y22	Z22	X23	Y23	Z23	X24	Y24	Z24	X25	Y25	Z25	X26	Y26	Z26	X27	Y27	Z27
250	4.166666666666667	0.1122634896724286	0.1956279436516722	0.05761459434969153	0.1307124999878336	0.15230653087947296	-0.3318950450886204	0.16627217743067965	0.18984805141387934	-0.7631113151189879	0.1902505630490854	0.03997786296562002	-0.770870841540494	0.11338856798380667	0.036557807503147466	-0.7585701919073419	0.17025297995531105	0.22490502992469824	-0.8226678867509347	0.3132408897079898	0.20721803193291777	0.08433516868380986	0.3505816944245221	0.16102799312709035	-0.3325130664599038	0.35870917095972465	0.2528199720556617	-0.7858774026216377	0.3276464527428243	0.049337849565681685	-0.7741089979146909	0.37177533007890956	0.08376254385912421	-0.7881530396364944	0.34156624264475144	0.2722503413294184	-0.8419213801995804	0.18555516163825322	0.35812703680977853	0.5216345728219802	0.15979137212945158	0.3298064773096115	0.7675829158460509	0.1693160824768432	0.26517643240358635	0.6507802784761583	0.029258791388954593	0.31347416411833373	0.44786368601553067	0.07495808726889228	0.1291947827027815	0.27368921008476255	0.2983469387594202	0.1499919126574224	0.31709976727883554	0.357563964640281	0.2013404395141053	0.361867803413751	0.3980821455175313	0.23675538960665143	0.3269869840207647	0.36152865439932635	0.20488421487272612	0.3123131936833758	0.32645570721850536	0.3474175436868346	0.47074115740116074	0.3703899279436028	0.14856032427162158	0.32704648977969075	0.15503831635940404	0.16319442479388688	0.32621111849152135	0.06251798554945752	0.17050772231479064	0.30858151484669916	0.07322727554252219	0.13780804904601915	0.2878506590995018	0.08501658824706396	0.12716384373625292	0.27812225001280266
251	4.183333333333334	0.11080534919616891	0.19726269780538472	0.055846579886820465	0.13030473718355892	0.152295475760366	-0.33476148500573916	0.1664257218536012	0.19007715395581812	-0.7642963769461919	0.18809463297042828	0.04045068448679928	-0.7721691280120491	0.11309254626030485	0.03685092968977527	-0.759362432705276	0.17224164842877138	0.2243835752049458	-0.8236765957622256	0.3110585707537336	0.20950075928604003	0.08240261300582243	0.350714420607474	0.16138854808992625	-0.3327949454933904	0.35871185392945654	0.25227658970679673	-0.7865393790318673	0.32730174164670633	0.05210139381640553	-0.7772707775275081	0.37242068033334425	0.0884312662110327	-0.7913787653241481	0.34227452055464824	0.26909242890899876	-0.8395363873903049	0.18307647593918966	0.35560152679777396	0.5213752432473489	0.15212709694920387	0.3247681193955591	0.7680350542598826	0.1651479273471476	0.2614009041537724	0.6498913618404325	0.02558168299116444	0.3104067804651335	0.44795128877514373	0.07431061416643711	0.12936268297831222	0.27299809153208954	0.29491608098221467	0.14561375588816386	0.318470188746203	0.3559029000680472	0.20064012034622175	0.3629130624802932	0.3900442644812786	0.24269744763829104	0.3261986880774051	0.3588796320754248	0.20311712027363138	0.31147227739706473	0.31933753714583935	0.3449861387787219	0.4714250073955424	0.3691110812146409	0.15429421538990534	0.3246227777831252	0.15443658527105267	0.1665482842624956	0.3263749452452879	0.05809412476923692	0.17597413510184465	0.3053599254590157	0.07233399344726789	0.13741830049743511	0.2883094785266783	0.08303656578528773	0.12260811710121648	0.28017826062701834
252	4.2	0.11021988282146443	0.19755406339690904	0.05443949356630755	0.13030902557231452	0.15219826115150445	-0.33823913085048923	0.16653487432503195	0.19014664543155121	-0.7652204671709056	0.18590817875595309	0.035866676002854384	-0.7685300358324665	0.11373487932370688	0.03346866671819	-0.7582609610205305	0.17425379314396203	0.2238656070963364	-0.8241191931168692	0.30975090342322914	0.21010607084993413	0.07986049358832606	0.35051538056849385	0.1612882724362404	-0.3348153364083264	0.35860385607664264	0.2516760765079854	-0.7874882152035781	0.3272659847942136	0.05320464829434919	-0.7794438699750357	0.37241539520668265	0.09153824479781679	-0.7933491606139249	0.34134468392571926	0.2694176449074468	-0.8403220759670331	0.1801422507446212	0.3559942599641095	0.5192999213935432	0.14561598029995027	0.32567433064174894	0.7676784773565957	0.1622656298028872	0.25726655215591565	0.6488215531319306	0.02243100200165521	0.3116124239337908	0.44759890098419786	0.07452630687534711	0.12794891609284556	0.2737317698031139	0.2914797093744131	0.14199361906878452	0.3195780761539077	0.35428355133397604	0.20060637695854405	0.36156188060803734	0.37929593145710944	0.23325305214594633	0.3273998900356838	0.3561072604821999	0.19952548514236312	0.31177976690692805	0.31338498507946677	0.34176151552195816	0.47261878009343294	0.3679114392666265	0.1587518059282803	0.3229767711864897	0.15465637315464884	0.1664434395520488	0.32709722245729556	0.05663666025268615	0.17785189469605203	0.3033386436384338	0.07146122188199154	0.13300211400236556	0.2883372130244803	0.0825829646000479	0.116449580210646	0.2823055873218606
253	4.216666666666667	0.11010180111754346	0.1973760149663501	0.053448812031773256	0.1305153218828098	0.15228785402146922	-0.3408289236931356	0.16656343864862833	0.19006304540105812	-0.7655619798171288	0.18398584087937858	0.02883553538544355	-0.7629769629734675	0.11476590076579649	0.028429271907893794	-0.7567409067417098	0.17559127480421566	0.22455462376278196	-0.8249083928951539	0.30899588143244666	0.2110132256123191	0.07625107658208442	0.34968850424384024	0.15981902623867417	-0.33620552673695325	0.35847206290932687	0.25122320021069167	-0.7884046433926928	0.3273616441913786	0.05308927805969835	-0.7801511844640581	0.3714034520680614	0.09222244977220863	-0.7942098227200022	0.3395606991106705	0.27175568933404454	-0.8431666529995562	0.1772467428929576	0.3592755758376053	0.5159587014445687	0.14058313463082073	0.3298022388211352	0.7665751038306152	0.16057107204453108	0.255270072778587	0.6475836214154853	0.019501258310450513	0.3154888195533631	0.44627485215787743	0.07481064273889143	0.1269570552179398	0.27451335216171635	0.28924095179659326	0.14225646683923163	0.31932504500508757	0.3524648787494568	0.2029728299794675	0.3592403971184196	0.3705825476140757	0.22139175244994935	0.32904588538448787	0.35362655124741915	0.1969119455690556	0.3123489688393068	0.3089863621139561	0.33949645306649917	0.4740897859947276	0.36620349573853916	0.1632448205234353	0.3220045999936251	0.15423652686771167	0.16672769594725606	0.32699138904692315	0.05648539471056153	0.17772329861551756	0.30126077818564007	0.07028179808132815	0.12734903275880038	0.2875071153853864	0.08268997579466306	0.1133110983184931	0.2833483291059071
254	4.233333333333333	0.11010409303825609	0.19720385995814665	0.05300932719728139	0.1306911243970463	0.15236507006352892	-0.3415850736264606	0.16646968680476903	0.18985686261443432	-0.7653904042413774	0.18309815607258267	0.022585266155815024	-0.7583281059921653	0.11584040712851919	0.02336118087641163	-0.7554897158108822	0.17594209636203473	0.22503933774038443	-0.8253362412693388	0.3081674323104366	0.2138666859558037	0.07223350334131852	0.34804590581287126	0.1563642281120818	-0.33527362164205143	0.358396391126349	0.2511743207294758	-0.7888620649515347	0.3274462262072556	0.05267192213505871	-0.7800580713958297	0.37006287490656087	0.0915576305546585	-0.7944430537230226	0.3380840613439187	0.273960542041079	-0.8459690242567306	0.17481484633253974	0.36161176262732975	0.5134688382316844	0.13667242403734686	0.333885042699817	0.7653042712187866	0.15949206460808346	0.2568541485199336	0.6462575373325394	0.016821335580890412	0.3186456771442906	0.4445646031721132	0.07466625910612414	0.12785687676271643	0.2743488425829776	0.2878327275985795	0.14563311346891553	0.31774882904212276	0.3505774067118273	0.20722214568785344	0.357623803178932	0.3657332273753303	0.21485108547777163	0.3307158443789786	0.3518246428467115	0.196340970965099	0.31238195595804086	0.3060888472641505	0.33901090593950123	0.4753773202344863	0.3641791588829385	0.16793306655361462	0.32126169096788537	0.1528581452504643	0.16846715890411737	0.3256745772037714	0.05630566208232602	0.17761577838843456	0.29814741756592616	0.06877529895574704	0.12447339988688155	0.285893796957782	0.08273321920140331	0.11248599938090773	0.2826151343426909
255	4.25	0.11008108021503879	0.19715756316691246	0.05296763392313677	0.13076653961234525	0.15179187585178486	-0.3405641108099101	0.16639101415051988	0.1894790109872978	-0.7655802398179067	0.18361926283169383	0.019100264028759344	-0.7555164766292121	0.11661279417866019	0.019854720528588953	-0.7549896879842821	0.17541246402097857	0.22402594199310097	-0.8246438050524731	0.30686187698431394	0.21831278777029398	0.0690607604993555	0.3460239469072417	0.15189805424403527	-0.33278228166405716	0.3583488649605938	0.25146486288015607	-0.7891809938234517	0.32747673321069104	0.05242841018298299	-0.7797903689257879	0.36927645104274387	0.09088581211465148	-0.7944035248197157	0.33748565113291673	0.27496811213068606	-0.8473977606851795	0.1725022478304859	0.36014080622758726	0.5130616021130452	0.13297562208038538	0.33612855028590954	0.7642302825245333	0.15863753950053067	0.26054277312902785	0.6451598561843611	0.014175898143696759	0.3193363176886465	0.4435273769750013	0.07428172358449446	0.12977941088623496	0.2732666066661613	0.2865097046447397	0.1495498756641815	0.3155807259680864	0.34916831243430774	0.21099757591247975	0.35736064397524675	0.36379567733957624	0.2140092110136303	0.33202767784458465	0.35086932907058366	0.19676518686004593	0.31185871893558825	0.304271797049373	0.33982398936849767	0.4760454017028351	0.36245692994760875	0.17267784138391384	0.3202620000226077	0.15126339450991622	0.1710796283225182	0.3235858265095919	0.05582033386361813	0.17832581618644333	0.2943969075301249	0.06709473958266277	0.12550534800610452	0.2848737852223622	0.08230984423138123	0.11210721146877069	0.28004937660207063
